<?xml version="1.0" encoding="utf-8"?>
<!-- Generator: Adobe Illustrator 15.1.0, SVG Export Plug-In . SVG Version: 6.00 Build 0)  -->
<!DOCTYPE svg PUBLIC "-//W3C//DTD SVG 1.1//EN" "http://www.w3.org/Graphics/SVG/1.1/DTD/svg11.dtd">
<svg version="1.1" id="Vrstva_1" xmlns="http://www.w3.org/2000/svg" xmlns:xlink="http://www.w3.org/1999/xlink" x="0px" y="0px"
	 width="595.28px" height="841.89px" viewBox="0 0 595.28 841.89" enable-background="new 0 0 595.28 841.89" xml:space="preserve">
<rect x="62.313" y="228.011" width="460.477" height="184.491"/>
<rect x="64.188" y="424.86" width="282.496" height="163.333"/>
<path fill="#146C9C" d="M224.762,182.688c0.143,0,0.283,0.04,0.426,0.12c2.412,1.06,1.325,0.571,3.216,0.815
	c2.932-0.325,3.499-1.505,5.721-4.88l-4.586-16.35c-0.095-0.325-0.236-0.65-0.236-1.018c0-0.486,0.33-1.26,1.891-1.26h1.513
	c2.648,0,2.601,1.059,3.546,4.637c0.946,3.538,1.371,5.735,1.465,7.198l-0.047,1.222c0.804-2.563,6.856-11.714,7.235-12.08
	c0.898-0.936,1.892-0.977,2.507-0.977h1.371c1.514,0,1.419,0.65,1.514,0.774c0.047,0.365-0.189,0.691-0.331,0.976l-12.059,18.544
	c-1.087,1.749-2.033,3.091-4.019,4.515c-3.074,2.153-5.722,2.153-6.526,2.153c-3.783,0-3.594-0.771-3.594-0.811v-0.449
	C224.054,183.826,224.1,182.688,224.762,182.688z"/>
<path d="M254.454,128.094h2.491c2.776,0,3.204,1.495,3.345,3.202l1.14,20.427c0.783,15.161,0.57,13.452,0.641,16.87
	c0.854-2.634,17.224-36.514,17.224-36.514c0.854-1.851,1.709-3.985,5.196-3.985h5.054c3.63,0,3.416,2.278,3.558,3.985l1.496,28.114
	c0.285,5.054,0.356,7.544,0.427,8.4c1.067-2.562,2.989-6.334,5.907-12.598l11.815-24.557c1.352-2.774,2.704-3.345,4.982-3.345h1.778
	c1.992,0,2.278,0.997,2.278,1.638c0,0.711-0.498,1.495-0.783,2.133l-20.355,42.209c-1.353,2.847-2.777,3.416-4.84,3.416h-5.553
	c-3.417,0-3.344-2.136-3.417-3.7l-1.495-27.047c-0.213-3.559-0.497-9.752-0.497-9.752l-17.368,36.373
	c-1.779,3.628-2.775,4.126-5.693,4.126h-4.484c-2.918,0-3.487-1.14-3.63-3.345l-2.349-42.279c-0.071-0.284-0.071-0.639-0.071-0.995
	C251.251,128.665,252.817,128.094,254.454,128.094z"/>
<path d="M315.27,172.722l8.754-41.354c0.499-2.135,0.925-3.274,3.345-3.274h16.512c6.621,0,12.314,0.57,15.374,4.839
	c1.354,1.851,1.853,4.129,1.853,6.407c0,5.196-2.136,11.104-6.549,14.664c-5.836,4.768-13.168,4.412-17.438,4.412h-8.613
	l-3.061,14.662c-0.64,2.704-0.711,4.413-3.486,4.413h-3.916c-2.916,0-3.2-1.921-3.2-2.562
	C314.844,174.359,315.056,173.79,315.27,172.722z M337.476,152.792c3.7,0,8.399-0.071,11.318-3.7
	c2.134-2.704,2.704-7.616,2.704-8.968c0-4.982-3.914-5.908-9.255-5.908h-8.752l-3.987,18.576H337.476z"/>
<path fill="#146C9C" d="M197.287,172.722l8.755-41.354c0.499-2.135,0.925-3.274,3.345-3.274H225.9c6.62,0,12.313,0.57,15.374,4.839
	c1.353,1.851,1.851,4.129,1.851,6.407c0,5.196-2.135,11.104-6.548,14.664c-5.837,4.768-13.167,4.412-17.438,4.412h-8.613
	l-3.06,14.662c-0.641,2.704-0.711,4.413-3.487,4.413h-3.915c-2.917,0-3.202-1.921-3.202-2.562
	C196.861,174.359,197.074,173.79,197.287,172.722z M219.494,152.792c3.701,0,8.399-0.071,11.317-3.7
	c2.136-2.704,2.705-7.616,2.705-8.968c0-4.982-3.915-5.908-9.253-5.908h-8.754l-3.985,18.576H219.494z"/>
<path d="M356.45,171.512l2.351-5.91c0.212-0.497,0.639-0.781,0.925-0.781c1.424,0,4.199,6.546,14.804,6.546
	c9.111,0,10.108-6.831,10.108-8.54c0-2.562-1.781-4.199-3.489-4.912c-1.493-0.639-6.904-1.566-9.323-2.419
	c-4.199-1.565-8.611-5.339-8.611-11.388c0-3.986,2.063-9.894,6.333-13.382c4.344-3.488,9.751-4.199,14.45-4.199
	c6.334,0,10.177,1.565,12.882,3.203c0.355,0.212,0.996,0.497,0.996,1.208c0,0.356-0.142,0.641-0.354,1.211l-1.923,4.911
	c-0.783,2.135-0.926,2.135-1.496,2.135c-1.705,0-2.134-5.338-11.529-5.338c-8.397,0-9.965,5.125-9.965,7.332
	c0,2.349,1.709,3.772,3.702,4.556c4.625,1.707,11.602,1.21,15.729,7.614c1.353,2.065,1.923,4.485,1.923,6.906
	c0,4.839-2.99,18.79-20.785,18.79c-9.536,0-17.223-4.341-17.223-5.837C355.954,172.935,356.166,172.366,356.45,171.512z"/>
<g>
	<path fill="#F1CB4A" d="M291.976,128.697c0.039,0.028,0.071,0.059,0.107,0.089C292.049,128.753,292.013,128.725,291.976,128.697z"
		/>
	<path fill="#F1CB4A" d="M291.849,128.616c0.016,0.01,0.033,0.018,0.048,0.028c-0.027-0.017-0.052-0.04-0.081-0.054
		C291.826,128.597,291.838,128.608,291.849,128.616z"/>
	<path fill="#F1CB4A" d="M291.785,128.579c0.009,0.004,0.023,0.007,0.031,0.012c-0.014-0.008-0.039-0.018-0.057-0.026
		C291.768,128.569,291.777,128.574,291.785,128.579z"/>
	<path fill="#F1CB4A" d="M414.254,63.682c-1.021,0.545-5.645,6.318-9.896,6.795c0,0-11.426,1.248-14.744,0.732
		c-3.352-0.521-4.835-0.5-5.945,0.345h-12.233c0,0-2.437,0.097-3.066,0.298c-0.605,0.194-0.803,1.132-0.803,1.132l-1.841,12.183
		h-67.116l3.935-13.749l4.022-0.365c5.166,0,9.399-0.07,10.505-1.969c1.108-1.905-2.472-2.959-7.638-2.959L294.3,65.638
		c-10.684-2.791-10.255,1.542-11.362,3.448c-1.105,1.899,2.184,3.445,7.352,3.445l8.376-0.763l-4.549,15.885l-23.646,20.946
		c-13.093-9.225-38.624-4.931-62.019,11.629c-8.448,5.985-33.623,25.438-39.211,32.565c4.758-5.189,28.343-22.726,34.647-27.189
		c22.897-16.208,47.84-20.673,61.167-12.208l-23.169,20.625c0.037,0.062,0.136,0.117,0.156,0.185
		c0.081,0.105,0.051,0.263,0.174,0.374c0.061,0.072,0.037,0.141,0.072,0.229l24.361-20.301c1.854,1.432,4.646,3.982,5.602,6.955
		c4.177,12.995,0.658,20.22-7.642,31.33c9.928-10.831,16.647-24.698,12.115-35.917c-0.741-1.833-3.139-5.709-4.6-6.981
		l20.592-17.354l-6.342,35.555h3.169c0.236,0,0.455,0.011,0.66,0.029c-0.078-0.017-0.135-0.029-0.135-0.029l6.942-37.349h67.873
		l-0.427,2.813l-71.685,36.201l-0.001-0.001c0.274,0.725,0.269,1.577,0.331,2.321l0.006,0.106c0.029,0.385,0.034,0.643,0.034,0.643
		l70.75-35.507l-1.017,10.728c-7.525,2.748-15.32,6.821-22.887,12.179c-4.829,3.419-7.689,5.438-10.296,7.867h2.083
		c0.999-0.661,2.169-1.444,3.647-2.491c8.984-6.36,18.284-10.899,27.075-13.573l-2.796,21.586c0.458,0.774,0.787,1.607,1.012,2.473
		l4.784-24.909c16.649-4.304,31.063-1.646,37.381,8.503c6.888,11.071,5.373,26.138-7.077,42.007
		c15.823-17.266,19.313-35.047,11.64-47.385c-6.8-10.93-23.003-13.174-41.271-7.38l5.06-32.083h10.416
		c0.482,0.885,3.358,0.651,6.533,0.878l13.282-0.793c4.092,0.296,12.548-7.369,13.952-9.52
		C415.414,65.407,416.979,62.232,414.254,63.682z"/>
</g>
<path fill="#146C9C" d="M206.43,374.16c0.143,0,0.283,0.04,0.426,0.12c2.412,1.06,1.325,0.571,3.216,0.815
	c2.932-0.325,3.499-1.505,5.721-4.88l-4.586-16.35c-0.095-0.325-0.236-0.65-0.236-1.018c0-0.486,0.33-1.26,1.891-1.26h1.513
	c2.648,0,2.601,1.059,3.546,4.637c0.946,3.538,1.371,5.735,1.465,7.198l-0.047,1.222c0.804-2.563,6.856-11.714,7.235-12.08
	c0.898-0.936,1.892-0.977,2.507-0.977h1.371c1.514,0,1.419,0.65,1.514,0.774c0.047,0.365-0.189,0.691-0.331,0.976l-12.059,18.544
	c-1.087,1.749-2.033,3.091-4.019,4.515c-3.074,2.153-5.722,2.153-6.526,2.153c-3.783,0-3.594-0.771-3.594-0.811v-0.449
	C205.722,375.297,205.768,374.16,206.43,374.16z"/>
<path fill="#FFFFFF" d="M236.122,319.565h2.491c2.776,0,3.204,1.495,3.345,3.202l1.14,20.427c0.783,15.161,0.57,13.452,0.641,16.87
	c0.854-2.634,17.224-36.514,17.224-36.514c0.854-1.851,1.709-3.985,5.196-3.985h5.054c3.63,0,3.416,2.278,3.558,3.985l1.496,28.114
	c0.285,5.054,0.356,7.544,0.427,8.4c1.067-2.562,2.989-6.334,5.907-12.598l11.815-24.557c1.352-2.774,2.704-3.345,4.982-3.345h1.778
	c1.992,0,2.278,0.997,2.278,1.638c0,0.711-0.498,1.495-0.783,2.133l-20.355,42.209c-1.353,2.847-2.777,3.416-4.84,3.416h-5.553
	c-3.417,0-3.344-2.136-3.417-3.7l-1.495-27.047c-0.213-3.559-0.497-9.752-0.497-9.752l-17.368,36.373
	c-1.779,3.628-2.775,4.126-5.693,4.126h-4.484c-2.918,0-3.487-1.14-3.63-3.345l-2.349-42.279c-0.071-0.284-0.071-0.639-0.071-0.995
	C232.919,320.136,234.485,319.565,236.122,319.565z"/>
<path fill="#FFFFFF" d="M296.938,364.193l8.754-41.354c0.499-2.135,0.925-3.274,3.345-3.274h16.512
	c6.621,0,12.314,0.57,15.374,4.839c1.354,1.851,1.853,4.129,1.853,6.407c0,5.196-2.136,11.104-6.549,14.664
	c-5.836,4.768-13.168,4.412-17.438,4.412h-8.613l-3.061,14.662c-0.64,2.704-0.711,4.413-3.486,4.413h-3.916
	c-2.916,0-3.2-1.921-3.2-2.562C296.512,365.83,296.724,365.261,296.938,364.193z M319.144,344.263c3.7,0,8.399-0.071,11.318-3.7
	c2.134-2.704,2.704-7.616,2.704-8.968c0-4.982-3.914-5.908-9.255-5.908h-8.752l-3.987,18.576H319.144z"/>
<path fill="#146C9C" d="M178.955,364.193l8.755-41.354c0.499-2.135,0.925-3.274,3.345-3.274h16.513c6.62,0,12.313,0.57,15.374,4.839
	c1.353,1.851,1.851,4.129,1.851,6.407c0,5.196-2.135,11.104-6.548,14.664c-5.837,4.768-13.167,4.412-17.438,4.412h-8.613
	l-3.06,14.662c-0.641,2.704-0.711,4.413-3.487,4.413h-3.915c-2.917,0-3.202-1.921-3.202-2.562
	C178.529,365.83,178.742,365.261,178.955,364.193z M201.162,344.263c3.701,0,8.399-0.071,11.317-3.7
	c2.136-2.704,2.705-7.616,2.705-8.968c0-4.982-3.915-5.908-9.253-5.908h-8.754l-3.985,18.576H201.162z"/>
<path fill="#FFFFFF" d="M338.118,362.983l2.351-5.91c0.212-0.497,0.639-0.781,0.925-0.781c1.424,0,4.199,6.546,14.804,6.546
	c9.111,0,10.108-6.831,10.108-8.54c0-2.562-1.781-4.199-3.489-4.912c-1.493-0.639-6.904-1.566-9.323-2.419
	c-4.199-1.565-8.611-5.339-8.611-11.388c0-3.986,2.063-9.894,6.333-13.382c4.344-3.488,9.751-4.199,14.45-4.199
	c6.334,0,10.177,1.565,12.882,3.203c0.355,0.212,0.996,0.497,0.996,1.208c0,0.356-0.142,0.641-0.354,1.211l-1.923,4.911
	c-0.783,2.135-0.926,2.135-1.496,2.135c-1.705,0-2.134-5.338-11.529-5.338c-8.397,0-9.965,5.125-9.965,7.332
	c0,2.349,1.709,3.772,3.702,4.556c4.625,1.707,11.602,1.21,15.729,7.614c1.353,2.065,1.923,4.485,1.923,6.906
	c0,4.839-2.99,18.79-20.785,18.79c-9.536,0-17.223-4.341-17.223-5.837C337.622,364.406,337.834,363.837,338.118,362.983z"/>
<g>
	<path fill="#F1CB4A" d="M273.644,320.168c0.039,0.028,0.071,0.059,0.107,0.089C273.717,320.224,273.681,320.196,273.644,320.168z"
		/>
	<path fill="#F1CB4A" d="M273.517,320.087c0.016,0.01,0.033,0.018,0.048,0.028c-0.027-0.017-0.052-0.04-0.081-0.054
		C273.494,320.068,273.506,320.08,273.517,320.087z"/>
	<path fill="#F1CB4A" d="M273.453,320.05c0.009,0.004,0.023,0.007,0.031,0.012c-0.014-0.008-0.039-0.018-0.057-0.026
		C273.436,320.04,273.445,320.045,273.453,320.05z"/>
	<path fill="#F1CB4A" d="M395.922,255.153c-1.021,0.545-5.645,6.318-9.896,6.795c0,0-11.426,1.248-14.744,0.732
		c-3.352-0.521-4.835-0.5-5.945,0.345h-12.233c0,0-2.437,0.097-3.066,0.298c-0.605,0.194-0.803,1.132-0.803,1.132l-1.841,12.183
		h-67.116l3.935-13.749l4.022-0.365c5.166,0,9.399-0.07,10.505-1.969c1.108-1.905-2.472-2.959-7.638-2.959l-15.133-0.489
		c-10.684-2.791-10.255,1.542-11.362,3.448c-1.105,1.899,2.184,3.445,7.352,3.445l8.376-0.763l-4.549,15.885l-23.646,20.946
		c-13.093-9.225-38.624-4.931-62.019,11.629c-8.448,5.985-33.623,25.438-39.211,32.565c4.758-5.189,28.343-22.726,34.647-27.189
		c22.897-16.208,47.84-20.673,61.167-12.208l-23.169,20.625c0.037,0.062,0.136,0.117,0.156,0.185
		c0.081,0.105,0.051,0.263,0.174,0.374c0.061,0.072,0.037,0.141,0.072,0.229l24.361-20.301c1.854,1.432,4.646,3.982,5.602,6.955
		c4.177,12.995,0.658,20.22-7.642,31.33c9.928-10.831,16.647-24.698,12.115-35.917c-0.741-1.833-3.139-5.709-4.6-6.981
		l20.592-17.354l-6.342,35.555h3.169c0.236,0,0.455,0.011,0.66,0.029c-0.078-0.017-0.135-0.029-0.135-0.029l6.942-37.349h67.873
		l-0.427,2.813l-71.685,36.201l-0.001-0.001c0.274,0.725,0.269,1.577,0.331,2.321l0.006,0.106c0.029,0.385,0.034,0.643,0.034,0.643
		l70.75-35.507l-1.017,10.728c-7.525,2.748-15.32,6.821-22.887,12.179c-4.829,3.419-7.689,5.438-10.296,7.867h2.083
		c0.999-0.661,2.169-1.444,3.647-2.491c8.984-6.36,18.284-10.899,27.075-13.573l-2.796,21.586c0.458,0.774,0.787,1.607,1.012,2.473
		l4.784-24.909c16.649-4.304,31.063-1.646,37.381,8.503c6.888,11.071,5.373,26.138-7.077,42.007
		c15.823-17.266,19.313-35.047,11.64-47.385c-6.8-10.93-23.003-13.174-41.271-7.38l5.06-32.083h10.416
		c0.482,0.885,3.358,0.651,6.533,0.878l13.282-0.793c4.092,0.296,12.548-7.369,13.952-9.52
		C397.082,256.878,398.647,253.703,395.922,255.153z"/>
</g>
<path fill="#6F6F6E" d="M156.361,545.085c0.115,0,0.229,0.032,0.345,0.098c1.955,0.858,1.074,0.463,2.607,0.661
	c2.377-0.263,2.836-1.221,4.638-3.957l-3.718-13.255c-0.077-0.263-0.191-0.526-0.191-0.824c0-0.394,0.267-1.021,1.533-1.021h1.227
	c2.147,0,2.108,0.858,2.875,3.759c0.767,2.867,1.112,4.649,1.188,5.835l-0.038,0.991c0.652-2.077,5.558-9.497,5.865-9.793
	c0.728-0.759,1.534-0.792,2.032-0.792h1.111c1.227,0,1.151,0.527,1.227,0.628c0.039,0.295-0.153,0.56-0.268,0.791l-9.776,15.034
	c-0.881,1.417-1.648,2.505-3.258,3.659c-2.492,1.746-4.639,1.746-5.291,1.746c-3.067,0-2.914-0.625-2.914-0.657v-0.364
	C155.787,546.008,155.824,545.085,156.361,545.085z"/>
<path fill="#FFFFFF" d="M180.432,500.826h2.019c2.251,0,2.597,1.212,2.711,2.596l0.924,16.561
	c0.635,12.291,0.462,10.905,0.52,13.676c0.693-2.136,13.963-29.602,13.963-29.602c0.693-1.5,1.386-3.23,4.213-3.23h4.097
	c2.943,0,2.769,1.847,2.884,3.23l1.212,22.792c0.23,4.097,0.289,6.116,0.347,6.81c0.864-2.077,2.423-5.135,4.789-10.213
	l9.579-19.908c1.096-2.248,2.191-2.711,4.039-2.711h1.441c1.615,0,1.847,0.808,1.847,1.327c0,0.577-0.403,1.212-0.635,1.73
	l-16.502,34.218c-1.097,2.308-2.251,2.769-3.924,2.769h-4.502c-2.77,0-2.711-1.73-2.77-2.999l-1.211-21.927
	c-0.173-2.885-0.403-7.905-0.403-7.905l-14.08,29.486c-1.442,2.941-2.25,3.345-4.616,3.345h-3.635c-2.366,0-2.827-0.923-2.943-2.712
	l-1.904-34.274c-0.057-0.23-0.057-0.519-0.057-0.808C177.835,501.289,179.105,500.826,180.432,500.826z"/>
<path fill="#FFFFFF" d="M229.735,537.005l7.096-33.524c0.404-1.73,0.75-2.654,2.712-2.654h13.386c5.368,0,9.983,0.463,12.464,3.923
	c1.097,1.501,1.502,3.347,1.502,5.194c0,4.212-1.731,9.002-5.31,11.887c-4.731,3.866-10.675,3.577-14.136,3.577h-6.983l-2.48,11.886
	c-0.52,2.191-0.576,3.577-2.826,3.577h-3.176c-2.363,0-2.594-1.557-2.594-2.076C229.389,538.332,229.561,537.871,229.735,537.005z
	 M247.737,520.849c2.999,0,6.809-0.059,9.175-3.001c1.73-2.191,2.192-6.174,2.192-7.27c0-4.039-3.173-4.789-7.503-4.789h-7.095
	l-3.232,15.06H247.737z"/>
<path fill="#6F6F6E" d="M134.087,537.005l7.098-33.524c0.404-1.73,0.75-2.654,2.712-2.654h13.387c5.367,0,9.982,0.463,12.463,3.923
	c1.097,1.501,1.5,3.347,1.5,5.194c0,4.212-1.731,9.002-5.309,11.887c-4.732,3.866-10.675,3.577-14.137,3.577h-6.982l-2.481,11.886
	c-0.52,2.191-0.576,3.577-2.827,3.577h-3.173c-2.365,0-2.596-1.557-2.596-2.076C133.742,538.332,133.915,537.871,134.087,537.005z
	 M152.09,520.849c3,0,6.809-0.059,9.175-3.001c1.731-2.191,2.193-6.174,2.193-7.27c0-4.039-3.174-4.789-7.502-4.789h-7.097
	l-3.23,15.06H152.09z"/>
<path fill="#FFFFFF" d="M263.119,536.025l1.906-4.792c0.172-0.402,0.518-0.633,0.749-0.633c1.154,0,3.404,5.308,12.001,5.308
	c7.387,0,8.195-5.539,8.195-6.924c0-2.076-1.444-3.404-2.829-3.982c-1.21-0.519-5.597-1.269-7.558-1.961
	c-3.404-1.269-6.981-4.328-6.981-9.231c0-3.231,1.673-8.021,5.134-10.849c3.521-2.828,7.905-3.404,11.715-3.404
	c5.135,0,8.25,1.27,10.443,2.597c0.288,0.173,0.808,0.403,0.808,0.98c0,0.288-0.115,0.52-0.288,0.981l-1.559,3.98
	c-0.635,1.731-0.75,1.731-1.213,1.731c-1.382,0-1.729-4.328-9.347-4.328c-6.808,0-8.078,4.155-8.078,5.944
	c0,1.904,1.386,3.059,3.001,3.693c3.75,1.384,9.405,0.98,12.752,6.173c1.097,1.674,1.559,3.636,1.559,5.599
	c0,3.923-2.424,15.231-16.85,15.231c-7.731,0-13.963-3.518-13.963-4.731C262.716,537.178,262.888,536.717,263.119,536.025z"/>
<g>
	<path fill="#C5C5C5" d="M210.851,501.314c0.031,0.022,0.058,0.048,0.086,0.072C210.91,501.36,210.88,501.337,210.851,501.314z"/>
	<path fill="#C5C5C5" d="M210.747,501.249c0.013,0.009,0.027,0.015,0.04,0.023c-0.022-0.014-0.042-0.032-0.065-0.044
		C210.729,501.233,210.739,501.243,210.747,501.249z"/>
	<path fill="#C5C5C5" d="M210.696,501.22c0.007,0.003,0.019,0.005,0.025,0.009c-0.011-0.007-0.032-0.014-0.046-0.021
		C210.682,501.211,210.689,501.215,210.696,501.22z"/>
	<path fill="#C5C5C5" d="M309.98,448.608c-0.828,0.442-4.576,5.122-8.023,5.509c0,0-9.263,1.012-11.954,0.594
		c-2.717-0.423-3.919-0.406-4.819,0.278h-9.918c0,0-1.975,0.079-2.485,0.242c-0.491,0.157-0.65,0.918-0.65,0.918l-1.493,9.876
		h-54.41l3.189-11.146l3.262-0.296c4.188,0,7.619-0.056,8.516-1.596c0.898-1.544-2.004-2.398-6.191-2.398l-12.268-0.396
		c-8.662-2.263-8.314,1.251-9.212,2.795c-0.896,1.54,1.771,2.793,5.96,2.793l6.791-0.618l-3.688,12.878l-19.169,16.98
		c-10.615-7.479-31.312-3.998-50.278,9.428c-6.849,4.852-27.257,20.622-31.788,26.399c3.857-4.207,22.977-18.424,28.088-22.042
		c18.562-13.14,38.784-16.76,49.588-9.896l-18.783,16.721c0.03,0.051,0.11,0.095,0.127,0.15c0.065,0.085,0.042,0.213,0.141,0.302
		c0.05,0.059,0.03,0.114,0.059,0.187l19.75-16.458c1.503,1.161,3.767,3.229,4.542,5.638c3.386,10.536,0.534,16.393-6.195,25.399
		c8.048-8.78,13.496-20.022,9.821-29.118c-0.601-1.485-2.544-4.628-3.729-5.659l16.694-14.068l-5.141,28.823h2.569
		c0.191,0,0.369,0.009,0.535,0.024c-0.063-0.015-0.11-0.024-0.11-0.024l5.628-30.278h55.023l-0.346,2.281l-58.114,29.348l0-0.001
		c0.222,0.587,0.218,1.277,0.268,1.881l0.004,0.086c0.024,0.313,0.028,0.521,0.028,0.521l57.356-28.785l-0.824,8.697
		c-6.101,2.228-12.42,5.529-18.555,9.873c-3.915,2.771-6.233,4.408-8.347,6.377h1.689c0.81-0.536,1.758-1.171,2.957-2.02
		c7.283-5.156,14.822-8.836,21.949-11.003l-2.267,17.499c0.371,0.627,0.638,1.303,0.82,2.005l3.878-20.193
		c13.498-3.489,25.183-1.334,30.304,6.893c5.584,8.975,4.355,21.189-5.737,34.056c12.827-13.998,15.657-28.412,9.436-38.415
		c-5.513-8.86-18.648-10.681-33.458-5.983l4.102-26.008h8.444c0.391,0.717,2.723,0.527,5.296,0.711l10.768-0.644
		c3.316,0.241,10.172-5.974,11.311-7.717C310.92,450.007,312.189,447.432,309.98,448.608z"/>
</g>
<rect x="64.188" y="634.86" fill="none" stroke="#000000" stroke-miterlimit="10" width="282.496" height="163.333"/>
<path fill="#6F6F6E" d="M156.361,755.085c0.115,0,0.229,0.032,0.345,0.098c1.955,0.858,1.074,0.463,2.607,0.661
	c2.377-0.263,2.836-1.221,4.638-3.957l-3.718-13.255c-0.077-0.263-0.191-0.526-0.191-0.824c0-0.394,0.267-1.021,1.533-1.021h1.227
	c2.147,0,2.108,0.858,2.875,3.759c0.767,2.867,1.112,4.649,1.188,5.835l-0.038,0.991c0.652-2.077,5.558-9.497,5.865-9.793
	c0.728-0.759,1.534-0.792,2.032-0.792h1.111c1.227,0,1.151,0.527,1.227,0.628c0.039,0.295-0.153,0.56-0.268,0.791l-9.776,15.034
	c-0.881,1.417-1.648,2.505-3.258,3.659c-2.492,1.746-4.639,1.746-5.291,1.746c-3.067,0-2.914-0.625-2.914-0.657v-0.364
	C155.787,756.008,155.824,755.085,156.361,755.085z"/>
<path d="M180.432,710.826h2.019c2.251,0,2.597,1.212,2.711,2.596l0.924,16.561c0.635,12.291,0.462,10.905,0.52,13.676
	c0.693-2.136,13.963-29.602,13.963-29.602c0.693-1.5,1.386-3.23,4.213-3.23h4.097c2.943,0,2.769,1.847,2.884,3.23l1.212,22.792
	c0.23,4.097,0.289,6.116,0.347,6.81c0.864-2.077,2.423-5.135,4.789-10.213l9.579-19.908c1.096-2.248,2.191-2.711,4.039-2.711h1.441
	c1.615,0,1.847,0.808,1.847,1.327c0,0.577-0.403,1.212-0.635,1.73l-16.502,34.218c-1.097,2.308-2.251,2.769-3.924,2.769h-4.502
	c-2.77,0-2.711-1.73-2.77-2.999l-1.211-21.927c-0.173-2.885-0.403-7.905-0.403-7.905l-14.08,29.486
	c-1.442,2.941-2.25,3.345-4.616,3.345h-3.635c-2.366,0-2.827-0.923-2.943-2.712l-1.904-34.274c-0.057-0.23-0.057-0.519-0.057-0.808
	C177.835,711.289,179.105,710.826,180.432,710.826z"/>
<path d="M229.735,747.005l7.096-33.524c0.404-1.73,0.75-2.654,2.712-2.654h13.386c5.368,0,9.983,0.463,12.464,3.923
	c1.097,1.501,1.502,3.347,1.502,5.194c0,4.212-1.731,9.002-5.31,11.887c-4.731,3.866-10.675,3.577-14.136,3.577h-6.983l-2.48,11.886
	c-0.52,2.191-0.576,3.577-2.826,3.577h-3.176c-2.363,0-2.594-1.557-2.594-2.076C229.389,748.332,229.561,747.871,229.735,747.005z
	 M247.737,730.849c2.999,0,6.809-0.059,9.175-3.001c1.73-2.191,2.192-6.174,2.192-7.27c0-4.039-3.173-4.789-7.503-4.789h-7.095
	l-3.232,15.06H247.737z"/>
<path fill="#6F6F6E" d="M134.087,747.005l7.098-33.524c0.404-1.73,0.75-2.654,2.712-2.654h13.387c5.367,0,9.982,0.463,12.463,3.923
	c1.097,1.501,1.5,3.347,1.5,5.194c0,4.212-1.731,9.002-5.309,11.887c-4.732,3.866-10.675,3.577-14.137,3.577h-6.982l-2.481,11.886
	c-0.52,2.191-0.576,3.577-2.827,3.577h-3.173c-2.365,0-2.596-1.557-2.596-2.076C133.742,748.332,133.915,747.871,134.087,747.005z
	 M152.09,730.849c3,0,6.809-0.059,9.175-3.001c1.731-2.191,2.193-6.174,2.193-7.27c0-4.039-3.174-4.789-7.502-4.789h-7.097
	l-3.23,15.06H152.09z"/>
<path d="M263.119,746.025l1.906-4.792c0.172-0.402,0.518-0.633,0.749-0.633c1.154,0,3.404,5.308,12.001,5.308
	c7.387,0,8.195-5.539,8.195-6.924c0-2.076-1.444-3.404-2.829-3.982c-1.21-0.519-5.597-1.269-7.558-1.961
	c-3.404-1.269-6.981-4.328-6.981-9.231c0-3.231,1.673-8.021,5.134-10.849c3.521-2.828,7.905-3.404,11.715-3.404
	c5.135,0,8.25,1.27,10.443,2.597c0.288,0.173,0.808,0.403,0.808,0.98c0,0.288-0.115,0.52-0.288,0.981l-1.559,3.98
	c-0.635,1.731-0.75,1.731-1.213,1.731c-1.382,0-1.729-4.328-9.347-4.328c-6.808,0-8.078,4.155-8.078,5.944
	c0,1.904,1.386,3.059,3.001,3.693c3.75,1.384,9.405,0.98,12.752,6.173c1.097,1.674,1.559,3.636,1.559,5.599
	c0,3.923-2.424,15.231-16.85,15.231c-7.731,0-13.963-3.518-13.963-4.731C262.716,747.178,262.888,746.717,263.119,746.025z"/>
<g>
	<path fill="#C5C5C5" d="M210.851,711.314c0.031,0.022,0.058,0.048,0.086,0.072C210.91,711.36,210.88,711.337,210.851,711.314z"/>
	<path fill="#C5C5C5" d="M210.747,711.249c0.013,0.009,0.027,0.015,0.04,0.023c-0.022-0.014-0.042-0.032-0.065-0.044
		C210.729,711.233,210.739,711.243,210.747,711.249z"/>
	<path fill="#C5C5C5" d="M210.696,711.22c0.007,0.003,0.019,0.005,0.025,0.009c-0.011-0.007-0.032-0.014-0.046-0.021
		C210.682,711.211,210.689,711.215,210.696,711.22z"/>
	<path fill="#C5C5C5" d="M309.98,658.608c-0.828,0.442-4.576,5.122-8.023,5.509c0,0-9.263,1.012-11.954,0.594
		c-2.717-0.423-3.919-0.406-4.819,0.278h-9.918c0,0-1.975,0.079-2.485,0.242c-0.491,0.157-0.65,0.918-0.65,0.918l-1.493,9.876
		h-54.41l3.189-11.146l3.262-0.296c4.188,0,7.619-0.056,8.516-1.596c0.898-1.544-2.004-2.398-6.191-2.398l-12.268-0.396
		c-8.662-2.263-8.314,1.251-9.212,2.795c-0.896,1.54,1.771,2.793,5.96,2.793l6.791-0.618l-3.688,12.878l-19.169,16.98
		c-10.615-7.479-31.312-3.998-50.278,9.428c-6.849,4.852-27.257,20.622-31.788,26.399c3.857-4.207,22.977-18.424,28.088-22.042
		c18.562-13.14,38.784-16.76,49.588-9.896l-18.783,16.721c0.03,0.051,0.11,0.095,0.127,0.15c0.065,0.085,0.042,0.213,0.141,0.302
		c0.05,0.059,0.03,0.114,0.059,0.187l19.75-16.458c1.503,1.161,3.767,3.229,4.542,5.638c3.386,10.536,0.534,16.393-6.195,25.399
		c8.048-8.78,13.496-20.022,9.821-29.118c-0.601-1.485-2.544-4.628-3.729-5.659l16.694-14.068l-5.141,28.823h2.569
		c0.191,0,0.369,0.009,0.535,0.024c-0.063-0.015-0.11-0.024-0.11-0.024l5.628-30.278h55.023l-0.346,2.281l-58.114,29.348l0-0.001
		c0.222,0.587,0.218,1.277,0.268,1.881l0.004,0.086c0.024,0.313,0.028,0.521,0.028,0.521l57.356-28.785l-0.824,8.697
		c-6.101,2.228-12.42,5.529-18.555,9.873c-3.915,2.771-6.233,4.408-8.347,6.377h1.689c0.81-0.536,1.758-1.171,2.957-2.02
		c7.283-5.156,14.822-8.836,21.949-11.003l-2.267,17.499c0.371,0.627,0.638,1.303,0.82,2.005l3.878-20.193
		c13.498-3.489,25.183-1.334,30.304,6.893c5.584,8.975,4.355,21.189-5.737,34.056c12.827-13.998,15.657-28.412,9.436-38.415
		c-5.513-8.86-18.648-10.681-33.458-5.983l4.102-26.008h8.444c0.391,0.717,2.723,0.527,5.296,0.711l10.768-0.644
		c3.316,0.241,10.172-5.974,11.311-7.717C310.92,660.007,312.189,657.432,309.98,658.608z"/>
</g>
<g>
	<path d="M392.883,485.083c-0.372,0.192-1.151,0.384-2.135,0.384c-2.279,0-3.982-1.439-3.982-4.102c0-2.543,1.715-4.246,4.222-4.246
		c0.995,0,1.644,0.216,1.919,0.36l-0.264,0.852c-0.384-0.192-0.947-0.336-1.619-0.336c-1.895,0-3.154,1.211-3.154,3.334
		c0,1.991,1.14,3.25,3.095,3.25c0.647,0,1.295-0.132,1.715-0.336L392.883,485.083z"/>
	<path d="M401.018,481.785c-0.06-1.128-0.132-2.495-0.132-3.49h-0.024c-0.287,0.936-0.611,1.955-1.019,3.07l-1.428,3.922h-0.791
		l-1.319-3.85c-0.384-1.151-0.696-2.184-0.924-3.143h-0.024c-0.023,1.008-0.084,2.351-0.155,3.574l-0.216,3.466h-0.996l0.564-8.084
		h1.331l1.379,3.91c0.336,0.995,0.6,1.883,0.815,2.723h0.024c0.216-0.815,0.504-1.703,0.863-2.723l1.439-3.91h1.331l0.504,8.084
		h-1.031L401.018,481.785z"/>
	<path d="M405.652,485.335v-3.43l-2.567-4.654h1.2l1.139,2.231c0.3,0.611,0.552,1.104,0.804,1.667h0.024
		c0.216-0.528,0.503-1.056,0.815-1.667l1.163-2.231h1.176l-2.699,4.642v3.442H405.652z"/>
	<path d="M410.261,477.251h1.044v3.898h0.036c0.216-0.312,0.432-0.6,0.636-0.863l2.471-3.035h1.295l-2.927,3.431l3.154,4.653h-1.235
		l-2.65-3.97l-0.779,0.888v3.082h-1.044V477.251z"/>
	<path d="M392.066,495.754c0,2.65-0.995,4.113-2.71,4.113c-1.523,0-2.566-1.427-2.591-4.006c0-2.626,1.14-4.054,2.723-4.054
		C391.119,491.808,392.066,493.271,392.066,495.754z M387.833,495.873c0,2.027,0.624,3.179,1.583,3.179
		c1.067,0,1.583-1.26,1.583-3.25c0-1.919-0.479-3.179-1.583-3.179C388.505,492.623,387.833,493.751,387.833,495.873z"/>
	<path d="M403.31,495.754c0,2.65-0.995,4.113-2.71,4.113c-1.523,0-2.566-1.427-2.591-4.006c0-2.626,1.14-4.054,2.723-4.054
		C402.362,491.808,403.31,493.271,403.31,495.754z M399.076,495.873c0,2.027,0.624,3.179,1.583,3.179c1.067,0,1.583-1.26,1.583-3.25
		c0-1.919-0.479-3.179-1.583-3.179C399.748,492.623,399.076,493.751,399.076,495.873z"/>
	<path d="M414.554,495.754c0,2.65-0.995,4.113-2.71,4.113c-1.523,0-2.566-1.427-2.591-4.006c0-2.626,1.14-4.054,2.723-4.054
		C413.606,491.808,414.554,493.271,414.554,495.754z M410.32,495.873c0,2.027,0.624,3.179,1.583,3.179
		c1.067,0,1.583-1.26,1.583-3.25c0-1.919-0.479-3.179-1.583-3.179C410.992,492.623,410.32,493.751,410.32,495.873z"/>
	<path d="M420.856,498.536c0.3,0.18,0.983,0.479,1.727,0.479c1.344,0,1.775-0.852,1.763-1.511c-0.012-1.092-0.995-1.56-2.015-1.56
		h-0.588v-0.791h0.588c0.768,0,1.739-0.396,1.739-1.319c0-0.624-0.396-1.176-1.367-1.176c-0.624,0-1.224,0.276-1.56,0.516
		l-0.287-0.768c0.419-0.3,1.211-0.6,2.051-0.6c1.535,0,2.23,0.911,2.23,1.859c0,0.815-0.492,1.499-1.439,1.847v0.024
		c0.96,0.18,1.728,0.899,1.739,1.99c0,1.247-0.983,2.339-2.843,2.339c-0.875,0-1.643-0.275-2.026-0.527L420.856,498.536z"/>
	<path d="M431.953,495.754c0,2.65-0.995,4.113-2.71,4.113c-1.523,0-2.566-1.427-2.591-4.006c0-2.626,1.14-4.054,2.723-4.054
		C431.006,491.808,431.953,493.271,431.953,495.754z M427.72,495.873c0,2.027,0.624,3.179,1.583,3.179
		c1.067,0,1.583-1.26,1.583-3.25c0-1.919-0.479-3.179-1.583-3.179C428.392,492.623,427.72,493.751,427.72,495.873z"/>
	<path d="M392.066,510.153c0,2.65-0.995,4.113-2.71,4.113c-1.523,0-2.566-1.427-2.591-4.006c0-2.626,1.14-4.054,2.723-4.054
		C391.119,506.207,392.066,507.67,392.066,510.153z M387.833,510.272c0,2.027,0.624,3.179,1.583,3.179
		c1.067,0,1.583-1.26,1.583-3.25c0-1.919-0.479-3.179-1.583-3.179C388.505,507.022,387.833,508.15,387.833,510.272z"/>
	<path d="M403.31,510.153c0,2.65-0.995,4.113-2.71,4.113c-1.523,0-2.566-1.427-2.591-4.006c0-2.626,1.14-4.054,2.723-4.054
		C402.362,506.207,403.31,507.67,403.31,510.153z M399.076,510.272c0,2.027,0.624,3.179,1.583,3.179c1.067,0,1.583-1.26,1.583-3.25
		c0-1.919-0.479-3.179-1.583-3.179C399.748,507.022,399.076,508.15,399.076,510.272z"/>
	<path d="M414.554,510.153c0,2.65-0.995,4.113-2.71,4.113c-1.523,0-2.566-1.427-2.591-4.006c0-2.626,1.14-4.054,2.723-4.054
		C413.606,506.207,414.554,507.67,414.554,510.153z M410.32,510.272c0,2.027,0.624,3.179,1.583,3.179c1.067,0,1.583-1.26,1.583-3.25
		c0-1.919-0.479-3.179-1.583-3.179C410.992,507.022,410.32,508.15,410.32,510.272z"/>
	<path d="M425.665,506.339v0.696l-3.394,7.1h-1.092l3.382-6.896v-0.023h-3.813v-0.876H425.665z"/>
	<path d="M431.953,510.153c0,2.65-0.995,4.113-2.71,4.113c-1.523,0-2.566-1.427-2.591-4.006c0-2.626,1.14-4.054,2.723-4.054
		C431.006,506.207,431.953,507.67,431.953,510.153z M427.72,510.272c0,2.027,0.624,3.179,1.583,3.179c1.067,0,1.583-1.26,1.583-3.25
		c0-1.919-0.479-3.179-1.583-3.179C428.392,507.022,427.72,508.15,427.72,510.272z"/>
	<path d="M392.066,524.554c0,2.65-0.995,4.113-2.71,4.113c-1.523,0-2.566-1.427-2.591-4.006c0-2.626,1.14-4.054,2.723-4.054
		C391.119,520.607,392.066,522.07,392.066,524.554z M387.833,524.673c0,2.027,0.624,3.179,1.583,3.179
		c1.067,0,1.583-1.26,1.583-3.25c0-1.919-0.479-3.179-1.583-3.179C388.505,521.423,387.833,522.551,387.833,524.673z"/>
	<path d="M403.31,524.554c0,2.65-0.995,4.113-2.71,4.113c-1.523,0-2.566-1.427-2.591-4.006c0-2.626,1.14-4.054,2.723-4.054
		C402.362,520.607,403.31,522.07,403.31,524.554z M399.076,524.673c0,2.027,0.624,3.179,1.583,3.179c1.067,0,1.583-1.26,1.583-3.25
		c0-1.919-0.479-3.179-1.583-3.179C399.748,521.423,399.076,522.551,399.076,524.673z"/>
	<path d="M414.554,524.554c0,2.65-0.995,4.113-2.71,4.113c-1.523,0-2.566-1.427-2.591-4.006c0-2.626,1.14-4.054,2.723-4.054
		C413.606,520.607,414.554,522.07,414.554,524.554z M410.32,524.673c0,2.027,0.624,3.179,1.583,3.179c1.067,0,1.583-1.26,1.583-3.25
		c0-1.919-0.479-3.179-1.583-3.179C410.992,521.423,410.32,522.551,410.32,524.673z"/>
	<path d="M425.797,524.554c0,2.65-0.995,4.113-2.71,4.113c-1.523,0-2.566-1.427-2.591-4.006c0-2.626,1.14-4.054,2.723-4.054
		C424.85,520.607,425.797,522.07,425.797,524.554z M421.563,524.673c0,2.027,0.624,3.179,1.583,3.179c1.067,0,1.583-1.26,1.583-3.25
		c0-1.919-0.479-3.179-1.583-3.179C422.235,521.423,421.563,522.551,421.563,524.673z"/>
</g>
<g>
	<path d="M457.549,104.105c-0.373,0.192-1.152,0.384-2.135,0.384c-2.279,0-3.982-1.439-3.982-4.102c0-2.543,1.715-4.246,4.221-4.246
		c0.996,0,1.645,0.216,1.92,0.36l-0.264,0.852c-0.385-0.192-0.947-0.336-1.619-0.336c-1.895,0-3.154,1.211-3.154,3.334
		c0,1.991,1.139,3.25,3.094,3.25c0.648,0,1.295-0.132,1.715-0.336L457.549,104.105z"/>
	<path d="M465.684,100.807c-0.061-1.128-0.133-2.495-0.133-3.49h-0.023c-0.287,0.936-0.611,1.955-1.02,3.07l-1.428,3.922h-0.791
		l-1.318-3.85c-0.385-1.151-0.697-2.184-0.924-3.143h-0.025c-0.023,1.008-0.084,2.351-0.154,3.574l-0.217,3.466h-0.996l0.564-8.084
		h1.332l1.379,3.91c0.336,0.995,0.6,1.883,0.814,2.723h0.025c0.215-0.815,0.504-1.703,0.863-2.723l1.439-3.91h1.33l0.504,8.084
		h-1.031L465.684,100.807z"/>
	<path d="M470.318,104.357v-3.43l-2.568-4.654h1.201l1.139,2.231c0.299,0.611,0.551,1.104,0.803,1.667h0.025
		c0.215-0.528,0.502-1.056,0.814-1.667l1.164-2.231h1.176l-2.699,4.642v3.442H470.318z"/>
	<path d="M474.926,96.273h1.045v3.898h0.035c0.217-0.312,0.432-0.6,0.637-0.863l2.471-3.035h1.295l-2.928,3.431l3.154,4.653H479.4
		l-2.65-3.97l-0.779,0.888v3.082h-1.045V96.273z"/>
	<path d="M456.732,114.776c0,2.65-0.996,4.113-2.711,4.113c-1.523,0-2.566-1.427-2.59-4.006c0-2.626,1.139-4.054,2.723-4.054
		C455.785,110.83,456.732,112.292,456.732,114.776z M452.498,114.895c0,2.027,0.625,3.179,1.584,3.179
		c1.066,0,1.582-1.26,1.582-3.25c0-1.919-0.479-3.179-1.582-3.179C453.17,111.645,452.498,112.773,452.498,114.895z"/>
	<path d="M462.783,118.757v-0.647l0.826-0.804c1.992-1.895,2.902-2.902,2.902-4.078c0-0.791-0.371-1.522-1.535-1.522
		c-0.707,0-1.295,0.359-1.654,0.659l-0.336-0.743c0.527-0.444,1.307-0.792,2.195-0.792c1.678,0,2.387,1.151,2.387,2.267
		c0,1.439-1.045,2.603-2.688,4.186l-0.611,0.576v0.023h3.49v0.876H462.783z"/>
	<path d="M471.229,111.945h-0.023l-1.355,0.731l-0.203-0.803l1.703-0.912h0.898v7.796h-1.02V111.945z"/>
	<path d="M481.621,114.656c-0.875-0.408-1.248-1.079-1.248-1.751c0-1.235,1.045-2.075,2.424-2.075c1.51,0,2.277,0.936,2.277,1.919
		c0,0.66-0.334,1.379-1.295,1.823v0.036c0.973,0.384,1.572,1.079,1.572,2.015c0,1.367-1.164,2.267-2.65,2.267
		c-1.633,0-2.615-0.959-2.615-2.099c0-0.983,0.588-1.691,1.547-2.099L481.621,114.656z M484.283,116.73
		c0-0.935-0.66-1.402-1.715-1.702c-0.912,0.264-1.402,0.875-1.402,1.619c-0.037,0.779,0.563,1.475,1.559,1.475
		C483.672,118.122,484.283,117.534,484.283,116.73z M481.381,112.833c-0.012,0.779,0.588,1.199,1.488,1.439
		c0.67-0.229,1.188-0.708,1.188-1.415c0-0.624-0.373-1.271-1.32-1.271C481.861,111.585,481.381,112.161,481.381,112.833z"/>
	<path d="M489.6,118.757v-2.135h-3.621v-0.684l3.479-4.978h1.139v4.846h1.092v0.815h-1.092v2.135H489.6z M489.6,115.807v-2.603
		c0-0.408,0.012-0.815,0.037-1.224H489.6c-0.238,0.456-0.432,0.792-0.646,1.151l-1.908,2.65v0.024H489.6z"/>
	<path d="M502.773,114.776c0,2.65-0.994,4.113-2.709,4.113c-1.523,0-2.566-1.427-2.592-4.006c0-2.626,1.141-4.054,2.723-4.054
		C501.826,110.83,502.773,112.292,502.773,114.776z M498.541,114.895c0,2.027,0.623,3.179,1.582,3.179
		c1.068,0,1.584-1.26,1.584-3.25c0-1.919-0.48-3.179-1.584-3.179C499.213,111.645,498.541,112.773,498.541,114.895z"/>
	<path d="M453.83,126.344h-0.023l-1.355,0.731l-0.205-0.803l1.703-0.912h0.9v7.796h-1.02V126.344z"/>
	<path d="M462.889,129.175c0,2.65-0.996,4.113-2.711,4.113c-1.523,0-2.566-1.427-2.59-4.006c0-2.626,1.139-4.054,2.723-4.054
		C461.941,125.229,462.889,126.692,462.889,129.175z M458.654,129.294c0,2.027,0.625,3.179,1.584,3.179
		c1.066,0,1.582-1.26,1.582-3.25c0-1.919-0.479-3.179-1.582-3.179C459.326,126.044,458.654,127.172,458.654,129.294z"/>
	<path d="M469.043,129.175c0,2.65-0.994,4.113-2.709,4.113c-1.523,0-2.566-1.427-2.592-4.006c0-2.626,1.141-4.054,2.723-4.054
		C468.096,125.229,469.043,126.692,469.043,129.175z M464.811,129.294c0,2.027,0.623,3.179,1.582,3.179
		c1.068,0,1.584-1.26,1.584-3.25c0-1.919-0.48-3.179-1.584-3.179C465.482,126.044,464.811,127.172,464.811,129.294z"/>
	<path d="M478.357,133.157v-2.135h-3.623v-0.684l3.479-4.978h1.141v4.846h1.09v0.815h-1.09v2.135H478.357z M478.357,130.207v-2.603
		c0-0.408,0.012-0.815,0.035-1.224h-0.035c-0.24,0.456-0.432,0.792-0.648,1.151l-1.906,2.65v0.024H478.357z"/>
	<path d="M481.502,131.958c0.301,0.18,0.984,0.479,1.727,0.479c1.344,0,1.775-0.852,1.764-1.511c-0.012-1.092-0.996-1.56-2.016-1.56
		h-0.588v-0.791h0.588c0.768,0,1.74-0.396,1.74-1.319c0-0.624-0.396-1.176-1.367-1.176c-0.625,0-1.225,0.276-1.561,0.516
		l-0.287-0.768c0.42-0.3,1.211-0.6,2.051-0.6c1.535,0,2.23,0.911,2.23,1.859c0,0.815-0.492,1.499-1.439,1.847v0.024
		c0.961,0.18,1.729,0.899,1.74,1.99c0,1.248-0.984,2.339-2.844,2.339c-0.875,0-1.643-0.275-2.025-0.527L481.502,131.958z"/>
	<path d="M494.785,126.344h-0.023l-1.355,0.731l-0.205-0.803l1.703-0.912h0.9v7.796h-1.02V126.344z"/>
	<path d="M499.262,132.414c0.227,0.023,0.492,0,0.852-0.036c0.611-0.084,1.188-0.324,1.631-0.756
		c0.516-0.468,0.887-1.151,1.031-2.063h-0.035c-0.434,0.527-1.057,0.827-1.848,0.827c-1.391,0-2.291-1.056-2.291-2.387
		c0-1.476,1.068-2.771,2.662-2.771c1.596,0,2.578,1.283,2.578,3.298c0,1.703-0.574,2.903-1.342,3.646
		c-0.6,0.588-1.428,0.947-2.268,1.043c-0.383,0.061-0.719,0.072-0.971,0.061V132.414z M499.645,127.94
		c0,0.971,0.588,1.654,1.5,1.654c0.707,0,1.26-0.348,1.535-0.815c0.061-0.107,0.096-0.216,0.096-0.396
		c0-1.331-0.492-2.351-1.607-2.351C500.281,126.033,499.645,126.825,499.645,127.94z"/>
	<path d="M514.547,126.249h-2.975l-0.299,2.003c0.18-0.024,0.348-0.036,0.635-0.036c0.611,0,1.199,0.12,1.68,0.42
		c0.611,0.336,1.115,1.02,1.115,1.991c0,1.522-1.211,2.662-2.902,2.662c-0.852,0-1.559-0.24-1.943-0.479l0.264-0.804
		c0.324,0.192,0.961,0.432,1.68,0.432c0.982,0,1.848-0.647,1.834-1.691c0-1.007-0.684-1.715-2.23-1.715
		c-0.455,0-0.803,0.036-1.09,0.072l0.502-3.742h3.73V126.249z"/>
	<path d="M456.732,143.576c0,2.65-0.996,4.113-2.711,4.113c-1.523,0-2.566-1.427-2.59-4.006c0-2.626,1.139-4.054,2.723-4.054
		C455.785,139.629,456.732,141.092,456.732,143.576z M452.498,143.695c0,2.027,0.625,3.179,1.584,3.179
		c1.066,0,1.582-1.26,1.582-3.25c0-1.919-0.479-3.179-1.582-3.179C453.17,140.445,452.498,141.573,452.498,143.695z"/>
	<path d="M467.975,143.576c0,2.65-0.994,4.113-2.709,4.113c-1.523,0-2.566-1.427-2.592-4.006c0-2.626,1.141-4.054,2.723-4.054
		C467.027,139.629,467.975,141.092,467.975,143.576z M463.742,143.695c0,2.027,0.623,3.179,1.582,3.179
		c1.068,0,1.584-1.26,1.584-3.25c0-1.919-0.48-3.179-1.584-3.179C464.414,140.445,463.742,141.573,463.742,143.695z"/>
	<path d="M479.219,143.576c0,2.65-0.994,4.113-2.709,4.113c-1.523,0-2.566-1.427-2.592-4.006c0-2.626,1.141-4.054,2.723-4.054
		C478.271,139.629,479.219,141.092,479.219,143.576z M474.986,143.695c0,2.027,0.623,3.179,1.582,3.179
		c1.068,0,1.584-1.26,1.584-3.25c0-1.919-0.48-3.179-1.584-3.179C475.658,140.445,474.986,141.573,474.986,143.695z"/>
	<path d="M487.561,140.745h-0.023l-1.355,0.731l-0.205-0.803l1.703-0.912h0.9v7.796h-1.02V140.745z"/>
	<path d="M496.619,143.576c0,2.65-0.996,4.113-2.711,4.113c-1.523,0-2.566-1.427-2.59-4.006c0-2.626,1.139-4.054,2.723-4.054
		C495.672,139.629,496.619,141.092,496.619,143.576z M492.385,143.695c0,2.027,0.625,3.179,1.584,3.179
		c1.066,0,1.582-1.26,1.582-3.25c0-1.919-0.479-3.179-1.582-3.179C493.057,140.445,492.385,141.573,492.385,143.695z"/>
	<path d="M502.773,143.576c0,2.65-0.994,4.113-2.709,4.113c-1.523,0-2.566-1.427-2.592-4.006c0-2.626,1.141-4.054,2.723-4.054
		C501.826,139.629,502.773,141.092,502.773,143.576z M498.541,143.695c0,2.027,0.623,3.179,1.582,3.179
		c1.068,0,1.584-1.26,1.584-3.25c0-1.919-0.48-3.179-1.584-3.179C499.213,140.445,498.541,141.573,498.541,143.695z"/>
</g>
<g>
	<path d="M392.883,693.083c-0.372,0.192-1.151,0.384-2.135,0.384c-2.279,0-3.982-1.439-3.982-4.102c0-2.543,1.715-4.246,4.222-4.246
		c0.995,0,1.644,0.216,1.919,0.36l-0.264,0.852c-0.384-0.192-0.947-0.336-1.619-0.336c-1.895,0-3.154,1.211-3.154,3.334
		c0,1.991,1.14,3.25,3.095,3.25c0.647,0,1.295-0.132,1.715-0.336L392.883,693.083z"/>
	<path d="M401.018,689.785c-0.06-1.128-0.132-2.495-0.132-3.49h-0.024c-0.287,0.936-0.611,1.955-1.019,3.07l-1.428,3.922h-0.791
		l-1.319-3.85c-0.384-1.151-0.696-2.184-0.924-3.143h-0.024c-0.023,1.008-0.084,2.351-0.155,3.574l-0.216,3.466h-0.996l0.564-8.084
		h1.331l1.379,3.91c0.336,0.995,0.6,1.883,0.815,2.723h0.024c0.216-0.815,0.504-1.703,0.863-2.723l1.439-3.91h1.331l0.504,8.084
		h-1.031L401.018,689.785z"/>
	<path d="M405.652,693.335v-3.43l-2.567-4.654h1.2l1.139,2.231c0.3,0.611,0.552,1.104,0.804,1.667h0.024
		c0.216-0.528,0.503-1.056,0.815-1.667l1.163-2.231h1.176l-2.699,4.642v3.442H405.652z"/>
	<path d="M410.261,685.251h1.044v3.898h0.036c0.216-0.312,0.432-0.6,0.636-0.863l2.471-3.035h1.295l-2.927,3.431l3.154,4.653h-1.235
		l-2.65-3.97l-0.779,0.888v3.082h-1.044V685.251z"/>
	<path d="M392.066,703.754c0,2.65-0.995,4.113-2.71,4.113c-1.523,0-2.566-1.427-2.591-4.006c0-2.626,1.14-4.054,2.723-4.054
		C391.119,699.808,392.066,701.271,392.066,703.754z M387.833,703.873c0,2.027,0.624,3.179,1.583,3.179
		c1.067,0,1.583-1.26,1.583-3.25c0-1.919-0.479-3.179-1.583-3.179C388.505,700.623,387.833,701.751,387.833,703.873z"/>
	<path d="M403.31,703.754c0,2.65-0.995,4.113-2.71,4.113c-1.523,0-2.566-1.427-2.591-4.006c0-2.626,1.14-4.054,2.723-4.054
		C402.362,699.808,403.31,701.271,403.31,703.754z M399.076,703.873c0,2.027,0.624,3.179,1.583,3.179c1.067,0,1.583-1.26,1.583-3.25
		c0-1.919-0.479-3.179-1.583-3.179C399.748,700.623,399.076,701.751,399.076,703.873z"/>
	<path d="M414.554,703.754c0,2.65-0.995,4.113-2.71,4.113c-1.523,0-2.566-1.427-2.591-4.006c0-2.626,1.14-4.054,2.723-4.054
		C413.606,699.808,414.554,701.271,414.554,703.754z M410.32,703.873c0,2.027,0.624,3.179,1.583,3.179
		c1.067,0,1.583-1.26,1.583-3.25c0-1.919-0.479-3.179-1.583-3.179C410.992,700.623,410.32,701.751,410.32,703.873z"/>
	<path d="M420.856,706.536c0.3,0.18,0.983,0.479,1.727,0.479c1.344,0,1.775-0.852,1.763-1.511c-0.012-1.092-0.995-1.56-2.015-1.56
		h-0.588v-0.791h0.588c0.768,0,1.739-0.396,1.739-1.319c0-0.624-0.396-1.176-1.367-1.176c-0.624,0-1.224,0.276-1.56,0.516
		l-0.287-0.768c0.419-0.3,1.211-0.6,2.051-0.6c1.535,0,2.23,0.911,2.23,1.859c0,0.815-0.492,1.499-1.439,1.847v0.024
		c0.96,0.18,1.728,0.899,1.739,1.99c0,1.247-0.983,2.339-2.843,2.339c-0.875,0-1.643-0.275-2.026-0.527L420.856,706.536z"/>
	<path d="M431.953,703.754c0,2.65-0.995,4.113-2.71,4.113c-1.523,0-2.566-1.427-2.591-4.006c0-2.626,1.14-4.054,2.723-4.054
		C431.006,699.808,431.953,701.271,431.953,703.754z M427.72,703.873c0,2.027,0.624,3.179,1.583,3.179
		c1.067,0,1.583-1.26,1.583-3.25c0-1.919-0.479-3.179-1.583-3.179C428.392,700.623,427.72,701.751,427.72,703.873z"/>
	<path d="M392.066,718.153c0,2.65-0.995,4.113-2.71,4.113c-1.523,0-2.566-1.427-2.591-4.006c0-2.626,1.14-4.054,2.723-4.054
		C391.119,714.207,392.066,715.67,392.066,718.153z M387.833,718.272c0,2.027,0.624,3.179,1.583,3.179
		c1.067,0,1.583-1.26,1.583-3.25c0-1.919-0.479-3.179-1.583-3.179C388.505,715.022,387.833,716.15,387.833,718.272z"/>
	<path d="M403.31,718.153c0,2.65-0.995,4.113-2.71,4.113c-1.523,0-2.566-1.427-2.591-4.006c0-2.626,1.14-4.054,2.723-4.054
		C402.362,714.207,403.31,715.67,403.31,718.153z M399.076,718.272c0,2.027,0.624,3.179,1.583,3.179c1.067,0,1.583-1.26,1.583-3.25
		c0-1.919-0.479-3.179-1.583-3.179C399.748,715.022,399.076,716.15,399.076,718.272z"/>
	<path d="M414.554,718.153c0,2.65-0.995,4.113-2.71,4.113c-1.523,0-2.566-1.427-2.591-4.006c0-2.626,1.14-4.054,2.723-4.054
		C413.606,714.207,414.554,715.67,414.554,718.153z M410.32,718.272c0,2.027,0.624,3.179,1.583,3.179c1.067,0,1.583-1.26,1.583-3.25
		c0-1.919-0.479-3.179-1.583-3.179C410.992,715.022,410.32,716.15,410.32,718.272z"/>
	<path d="M425.665,714.339v0.696l-3.394,7.1h-1.092l3.382-6.896v-0.023h-3.813v-0.876H425.665z"/>
	<path d="M431.953,718.153c0,2.65-0.995,4.113-2.71,4.113c-1.523,0-2.566-1.427-2.591-4.006c0-2.626,1.14-4.054,2.723-4.054
		C431.006,714.207,431.953,715.67,431.953,718.153z M427.72,718.272c0,2.027,0.624,3.179,1.583,3.179c1.067,0,1.583-1.26,1.583-3.25
		c0-1.919-0.479-3.179-1.583-3.179C428.392,715.022,427.72,716.15,427.72,718.272z"/>
	<path d="M392.066,732.554c0,2.65-0.995,4.113-2.71,4.113c-1.523,0-2.566-1.427-2.591-4.006c0-2.626,1.14-4.054,2.723-4.054
		C391.119,728.607,392.066,730.07,392.066,732.554z M387.833,732.673c0,2.027,0.624,3.179,1.583,3.179
		c1.067,0,1.583-1.26,1.583-3.25c0-1.919-0.479-3.179-1.583-3.179C388.505,729.423,387.833,730.551,387.833,732.673z"/>
	<path d="M403.31,732.554c0,2.65-0.995,4.113-2.71,4.113c-1.523,0-2.566-1.427-2.591-4.006c0-2.626,1.14-4.054,2.723-4.054
		C402.362,728.607,403.31,730.07,403.31,732.554z M399.076,732.673c0,2.027,0.624,3.179,1.583,3.179c1.067,0,1.583-1.26,1.583-3.25
		c0-1.919-0.479-3.179-1.583-3.179C399.748,729.423,399.076,730.551,399.076,732.673z"/>
	<path d="M414.554,732.554c0,2.65-0.995,4.113-2.71,4.113c-1.523,0-2.566-1.427-2.591-4.006c0-2.626,1.14-4.054,2.723-4.054
		C413.606,728.607,414.554,730.07,414.554,732.554z M410.32,732.673c0,2.027,0.624,3.179,1.583,3.179c1.067,0,1.583-1.26,1.583-3.25
		c0-1.919-0.479-3.179-1.583-3.179C410.992,729.423,410.32,730.551,410.32,732.673z"/>
	<path d="M422.895,729.723h-0.023l-1.355,0.731l-0.204-0.803l1.703-0.912h0.899v7.796h-1.02V729.723z"/>
	<path d="M431.953,732.554c0,2.65-0.995,4.113-2.71,4.113c-1.523,0-2.566-1.427-2.591-4.006c0-2.626,1.14-4.054,2.723-4.054
		C431.006,728.607,431.953,730.07,431.953,732.554z M427.72,732.673c0,2.027,0.624,3.179,1.583,3.179c1.067,0,1.583-1.26,1.583-3.25
		c0-1.919-0.479-3.179-1.583-3.179C428.392,729.423,427.72,730.551,427.72,732.673z"/>
	<path d="M438.108,732.554c0,2.65-0.995,4.113-2.71,4.113c-1.523,0-2.566-1.427-2.591-4.006c0-2.626,1.14-4.054,2.723-4.054
		C437.161,728.607,438.108,730.07,438.108,732.554z M433.875,732.673c0,2.027,0.624,3.179,1.583,3.179
		c1.067,0,1.583-1.26,1.583-3.25c0-1.919-0.479-3.179-1.583-3.179C434.547,729.423,433.875,730.551,433.875,732.673z"/>
</g>
</svg>
